<svg id="Layer_1" data-name="Layer 1" xmlns="http://www.w3.org/2000/svg" viewBox="0 0 90 90"><title>noun_Exit_831548</title><path d="M32.5,68a.73.73,0,0,0,.6.2,1.42,1.42,0,0,0,.6-.2L50.3,51.4,66.9,68a.73.73,0,0,0,.6.2,1.42,1.42,0,0,0,.6-.2.91.91,0,0,0,0-1.2L51.4,50.2,68,33.6a.85.85,0,1,0-1.2-1.2L50.3,49,33.6,32.4a.85.85,0,0,0-1.2,1.2L49,50.2,32.5,66.8A.75.75,0,0,0,32.5,68Z" transform="translate(-5 -5)"/><path d="M65,7A28.08,28.08,0,0,1,93,35V65A28.08,28.08,0,0,1,65,93H35A28.08,28.08,0,0,1,7,65V35A28.08,28.08,0,0,1,35,7H65m0-2H35A30,30,0,0,0,5,35V65A30,30,0,0,0,35,95H65A30,30,0,0,0,95,65V35A30,30,0,0,0,65,5Z" transform="translate(-5 -5)"/></svg>